<svg width="1440" height="317" viewBox="0 0 1440 317" fill="none" xmlns="http://www.w3.org/2000/svg">
<mask id="mask0" mask-type="alpha" maskUnits="userSpaceOnUse" x="0" y="0" width="1440" height="317">
<rect width="1440" height="317" fill="#6D00D9"/>
</mask>
<g mask="url(#mask0)">
<rect width="1440" height="317" fill="#6D00D9"/>
<path d="M1136.98 270.512C1136.7 270.99 1136.86 271.602 1137.34 271.878L1144.82 276.196C1180.65 296.885 1204.67 302.895 1233.1 299.009C1267.15 294.443 1299.81 270.743 1319.38 236.859C1358.22 169.584 1336.37 89.5295 1269.61 50.9859C1232.79 29.7302 1186.13 24.3962 1148.52 37.3857C1114.3 49.0536 1093.04 68.8645 1068.66 111.096L953.191 312.98C952.946 313.407 953.049 313.948 953.433 314.256L962.411 321.461C962.451 321.493 962.493 321.522 962.537 321.547L1047.33 370.502C1047.81 370.778 1048.42 370.614 1048.7 370.136L1171.52 157.39C1182.3 138.729 1196.6 133.235 1211.81 142.021C1225.07 149.673 1228.8 163.613 1221.71 175.89C1214.19 188.918 1202.84 192.152 1187.21 185.323C1186.74 185.117 1186.18 185.291 1185.92 185.737L1136.98 270.512Z" fill="#9462FF" fill-opacity="0.5"/>
<path d="M324.445 85.6348C324.836 85.2443 325.469 85.2443 325.86 85.6348L331.77 91.545C360.185 119.96 371.861 140.982 375.36 168.623C379.636 201.715 365.613 238.314 338.745 265.182C285.398 318.529 204.808 318.155 151.87 265.217C122.676 236.023 105.943 193.59 108.675 155.047C111.018 120.007 124.26 95.0878 157.748 61.5997L318.091 -97.4493C318.44 -97.7958 318.99 -97.8368 319.387 -97.5458L328.38 -90.9504C328.422 -90.9203 328.46 -90.8871 328.496 -90.8511L395.712 -23.6354C396.102 -23.2449 396.102 -22.6117 395.712 -22.2212L227.031 146.459C212.234 161.256 210.674 176.051 222.741 188.118C233.251 198.627 247.266 198.625 257.001 188.89C267.327 178.565 267.514 167.115 257.194 154.171C256.873 153.769 256.897 153.184 257.261 152.82L324.445 85.6348Z" fill="#9462FF" fill-opacity="0.5"/>
<circle cx="29" cy="280" r="50" fill="#8131EC"/>
</g>
</svg>